<?xml version="1.0" encoding="UTF-8"?>
<svg xmlns="http://www.w3.org/2000/svg" version="1.1" viewBox="0 0 960 720">
  <!-- Generator: Adobe Illustrator 29.5.1, SVG Export Plug-In . SVG Version: 2.1.0 Build 141)  -->
  <defs>
    <style>
      .st0 {
        fill: #cfc9c1;
      }

      .st1 {
        fill: #89d1ff;
      }

      .st2 {
        fill: #6f9fff;
      }

      .st3 {
        fill: #d1b9fd;
      }

      .st4 {
        fill: #fff;
      }

      .st5 {
        fill: #ffa7c0;
      }

      .st6 {
        fill: #ffa036;
      }

      .st7 {
        fill: #f7f0eb;
      }

      .st8 {
        fill: #ff5d5d;
      }

      .st9 {
        fill: #9ae995;
      }

      .st10 {
        fill: #f6f20a;
      }
    </style>
  </defs>
  <g id="Background">
    <rect id="Background1" data-name="Background" class="st7" width="960" height="720"/>
  </g>
  <g id="Elements">
    <g id="Lines">
      <path class="st5" d="M205.25,342.65c-6.96,0-13.79-3.35-17.95-9.56-6.65-9.9-4.01-23.32,5.9-29.97l331.96-222.82c9.9-6.65,23.32-4.01,29.97,5.9,6.65,9.91,4.01,23.32-5.9,29.97l-331.96,222.82c-3.69,2.48-7.88,3.67-12.02,3.67Z"/>
      <path class="st5" d="M428.38,643.38c-7.09,0-14.03-3.49-18.17-9.89-6.47-10.02-3.59-23.39,6.43-29.86l385.65-248.99c10.02-6.47,23.39-3.59,29.86,6.43,6.47,10.02,3.59,23.39-6.43,29.86l-385.65,248.99c-3.62,2.34-7.68,3.46-11.7,3.46Z"/>
    </g>
    <g id="Stars">
      <path class="st8" d="M784.39,320.82l9.94-9.17,11.06,1.81c.79.13,1.29-.82.74-1.4l-7.92-8.28,7.79-7.99c.6-.61-.01-1.63-.83-1.38l-11.67,3.5-8.72-9.03c-.54-.56-1.47-.14-1.43.63l.62,10.71-12.86,3.57c-.86.24-.79,1.48.09,1.62l13.47,2.23-1.67,12.46c-.1.77.82,1.25,1.39.72Z"/>
      <path class="st8" d="M161.76,465.47l7.42,11.31,11.17.92c.8.07,1.05,1.11.38,1.53l-9.69,6.12,5.62,9.64c.43.74-.41,1.57-1.14,1.14l-10.48-6.22-10.65,6.65c-.65.41-1.47-.22-1.24-.95l3.19-10.24-11.61-6.58c-.78-.44-.41-1.63.48-1.55l13.61,1.1,1.4-12.49c.09-.77,1.1-1.02,1.52-.36Z"/>
      <g>
        <path class="st6" d="M316.2,170.76l15.57-23.72,23.44-1.94c1.67-.14,2.21-2.32.79-3.22l-20.32-12.83,11.79-20.21c.91-1.56-.85-3.3-2.4-2.38l-21.97,13.05-22.33-13.94c-1.37-.86-3.07.45-2.59,2l6.7,21.48-24.34,13.8c-1.63.92-.86,3.41,1,3.26l28.55-2.31,2.93,26.19c.18,1.62,2.3,2.13,3.19.76Z"/>
        <path d="M314.76,172.99c-.25,0-.5-.03-.76-.09-1.32-.32-2.27-1.39-2.43-2.74l-2.78-24.81-27.16,2.2c-1.52.12-2.85-.78-3.3-2.24-.45-1.46.14-2.95,1.47-3.71l23.33-13.23-6.35-20.37c-.4-1.29.03-2.65,1.09-3.47,1.07-.82,2.49-.89,3.63-.18l21.59,13.47,21.22-12.6c1.27-.75,2.82-.56,3.87.48,1.05,1.04,1.25,2.59.51,3.87l-11.09,19.01,19.14,12.09c1.18.74,1.72,2.1,1.39,3.45-.33,1.35-1.44,2.3-2.83,2.42l-22.74,1.88-15.18,23.13h0c-.6.92-1.59,1.44-2.65,1.44ZM316.2,170.76h0,0ZM310.07,142.36c.73,0,1.35.55,1.43,1.28l2.93,26.19c0,.05.02.21.23.26.21.05.3-.09.33-.13l15.57-23.72c.24-.37.64-.61,1.09-.65l23.44-1.94c.05,0,.22-.02.27-.23.05-.21-.09-.3-.13-.33l-20.32-12.83c-.66-.41-.87-1.27-.47-1.94l11.79-20.21c.03-.06.12-.2-.05-.37-.17-.17-.32-.08-.37-.05l-21.97,13.05c-.46.28-1.04.27-1.5-.02l-22.33-13.94s-.18-.11-.35.02c-.17.13-.12.28-.11.33l6.7,21.48c.2.65-.07,1.35-.66,1.68l-24.34,13.8c-.06.04-.21.12-.14.36.07.23.24.22.32.22l28.55-2.31s.08,0,.12,0Z"/>
      </g>
      <g>
        <path class="st6" d="M755.18,569.23l24.16-4.83,15.48,13.31c1.1.95,2.78-.05,2.47-1.47l-4.44-20.39,19.68-5.02c1.52-.39,1.52-2.54.01-2.94l-21.46-5.64-4.99-22.31c-.31-1.37-2.15-1.62-2.82-.38l-9.21,17.23-23.37-6.65c-1.56-.44-2.63,1.55-1.41,2.61l18.83,16.25-14.42,17.78c-.89,1.1.08,2.72,1.47,2.44Z"/>
        <path d="M795.8,579.53c-.68,0-1.36-.24-1.92-.72l-14.95-12.86-23.47,4.69h0c-1.24.25-2.46-.29-3.11-1.37-.65-1.08-.56-2.41.23-3.39l13.54-16.69-17.77-15.34c-1.07-.93-1.34-2.39-.67-3.64.67-1.25,2.04-1.83,3.41-1.44l22.26,6.33,8.66-16.21c.59-1.1,1.77-1.7,3.01-1.54,1.24.17,2.21,1.07,2.49,2.28l4.79,21.45,20.61,5.42c1.32.35,2.21,1.5,2.2,2.87,0,1.37-.9,2.52-2.22,2.85l-18.34,4.68,4.15,19.03c.28,1.26-.26,2.51-1.37,3.17-.48.29-1,.43-1.52.43ZM779.33,562.96c.34,0,.68.12.94.35l15.48,13.31s.04.04.09,0c.05-.03.04-.04.04-.08l-4.44-20.39c-.17-.76.3-1.51,1.05-1.7l19.68-5.02s.05-.02.05-.02c.02-.02.02-.09,0-.11h0s-.01,0-.04-.02l-21.46-5.64c-.52-.14-.92-.55-1.04-1.08l-4.99-22.31s-.01-.05-.06-.06c-.05,0-.06,0-.08.04l-9.21,17.23c-.32.6-1.01.89-1.66.71l-23.37-6.65s-.05,0-.05,0c-.02.01-.06.08-.05.1h0s.01.01.03.03l18.83,16.25c.59.51.67,1.39.18,2l-14.42,17.78s-.03.04,0,.09c.03.05.04.04.08.04l24.16-4.83c.09-.02.19-.03.28-.03ZM755.18,569.23h0,0Z"/>
      </g>
    </g>
    <g id="Lines1" data-name="Lines">
      <path class="st2" d="M367.91,613.02h-199.45c-.76,0-1.39-.59-1.44-1.35-.05-.76.5-1.42,1.25-1.52.16-.02,16.44-2.17,32.39-5.47,9.33-1.93,16.72-3.88,21.96-5.77,8.53-3.09,8.81-5.13,8.77-5.51,0-.08-.26-1.92-9.27-4.25-5.31-1.37-12.68-2.67-21.91-3.86-15.78-2.03-31.69-3.05-31.85-3.06-.79-.05-1.4-.73-1.35-1.53.05-.79.73-1.39,1.53-1.35.16.01,16.15,1.03,32.02,3.07,9.35,1.2,16.85,2.53,22.27,3.93,7.68,1.98,11.2,4.08,11.42,6.8.25,3.04-3.14,5.72-10.67,8.45-5.37,1.95-12.89,3.93-22.36,5.89-4.79.99-9.6,1.88-14.01,2.64h180.68c.8,0,1.44.64,1.44,1.44s-.64,1.44-1.44,1.44Z"/>
      <path class="st2" d="M137.7,293.59c-.5,0-.98-.26-1.25-.72-.4-.69-.16-1.57.53-1.97.35-.2,34.89-20.06,68.01-41.46,19.43-12.56,34.56-23.18,44.99-31.56,17.42-14.02,17.12-18.2,16.61-19.15-.3-.56-.86-.93-1.72-1.15-2.62-.67-8.87-.09-23.77,6.49-9.76,4.31-22.06,10.67-36.55,18.91-24.71,14.04-47.51,28.84-47.74,28.98-.62.4-1.44.27-1.9-.3-.46-.57-.42-1.4.1-1.92.1-.1,9.74-9.77,18.76-20.24,16.82-19.52,15.97-23.74,15.63-24.39-.33-.62-3.02-3.4-24.23,2.7-11.52,3.31-22.71,7.61-22.82,7.66-.74.29-1.58-.08-1.86-.83-.29-.74.08-1.58.83-1.86.11-.04,11.4-4.38,23.04-7.73,22-6.33,26.28-3.76,27.59-1.28,1.2,2.29,0,6.07-3.8,11.9-2.74,4.21-6.85,9.5-12.21,15.72-3.64,4.23-7.38,8.32-10.56,11.72,9.03-5.66,23.05-14.28,37.75-22.63,14.58-8.28,26.96-14.69,36.82-19.04,12.74-5.63,21.13-7.8,25.65-6.65,1.66.42,2.85,1.29,3.54,2.58,2.29,4.25-3.06,11.27-17.34,22.76-10.5,8.45-25.72,19.13-45.24,31.74-33.18,21.45-67.79,41.34-68.13,41.54-.23.13-.47.19-.72.19Z"/>
      <path class="st2" d="M714.55,296.91c-.16,0-.33-.03-.49-.09-.73-.26-1.12-1.06-.88-1.8.12-.36,11.73-36.53,17.05-75.49,3.12-22.81,3.5-42.1,1.14-57.31-2.9-18.72-9.98-31.23-21.03-37.16-.7-.38-.96-1.25-.59-1.95.38-.7,1.25-.96,1.95-.59,11.89,6.39,19.47,19.6,22.51,39.27,2.4,15.5,2.02,35.07-1.14,58.16-2.68,19.63-6.95,38.55-10.56,52.6,4.83-11.38,11.14-25.86,17.89-40.46,8.57-18.54,16.18-33.63,22.62-44.87,8.3-14.48,14.56-22.44,19.13-24.33,1.43-.59,2.76-.63,3.94-.12,1.52.65,2.64,1.91,3.33,3.74,2.59,6.83-.85,22.85-10.22,47.62-3.4,8.97-6.99,17.53-9.78,23.94l51.73-66.78c.49-.63,1.39-.74,2.02-.26.63.49.74,1.39.26,2.02l-59.11,76.31c-.45.58-1.26.73-1.89.35-.63-.38-.86-1.18-.55-1.84.08-.16,7.77-16.62,14.64-34.77,11.35-29.99,11.82-41.33,10.21-45.56-.41-1.08-.99-1.78-1.78-2.11-.45-.19-1-.15-1.7.14-2.68,1.11-7.94,6.01-17.73,23.09-6.4,11.16-13.97,26.18-22.51,44.64-14.55,31.46-27.02,62.4-27.14,62.71-.23.56-.76.9-1.34.9Z"/>
    </g>
    <g id="Shape">
      <path class="st3" d="M667.26,154.97c-18.6-14.1-39.23-20.41-46.08-14.11-3.33,3.06-2.79,8.54.78,14.98-20.99-12.74-40.19-18.22-46.56-12.36-7.94,7.31,7.05,29.47,33.48,49.5,26.43,20.03,54.29,30.34,62.23,23.03,4.87-4.48,1.11-14.56-8.62-26.29,11.57,5.08,21.65,6.23,26.05,2.18,6.85-6.31-2.68-22.84-21.28-36.94Z"/>
      <path d="M663.33,219.8c-5.78,0-12.45-2.04-16.9-3.68-11.88-4.4-25.53-12.2-38.42-21.97-21.11-16-35.65-33.97-36.16-44.71-.14-2.94.73-5.3,2.58-7,3.47-3.2,10.09-3.59,19.15-1.13,7.43,2.02,16.05,5.78,25.14,10.96-1.98-5.37-1.49-9.7,1.5-12.46,3.7-3.41,10.82-3.74,20.03-.92,8.86,2.71,18.77,8.02,27.89,14.93,14.2,10.76,23.64,23.31,24.06,31.98.14,2.95-.78,5.42-2.67,7.16-2.46,2.27-6.31,3.18-11.44,2.7-3.32-.31-7.12-1.21-11.18-2.65,8.06,11.01,9.98,19.64,5.19,24.06-2.15,1.98-5.29,2.71-8.76,2.71ZM583.2,142.58c-3.07,0-5.41.66-6.83,1.97-1.21,1.11-1.75,2.67-1.65,4.75.47,9.78,14.87,27.28,35.02,42.55,28.05,21.26,53.87,29.12,60.39,23.12,3.99-3.67.64-12.99-8.75-24.32-.43-.51-.44-1.25-.04-1.79.4-.53,1.12-.72,1.73-.45,11.34,4.97,20.73,5.91,24.5,2.44,1.26-1.16,1.84-2.81,1.74-4.91-.37-7.73-9.58-19.72-22.92-29.83-8.86-6.72-18.45-11.86-27-14.47-8.07-2.47-14.36-2.37-17.23.28-1.55,1.43-3.47,5.04,1.06,13.23.32.57.21,1.28-.26,1.74-.47.45-1.19.53-1.74.19-10.17-6.17-20.26-10.79-28.39-13-3.69-1-6.94-1.5-9.61-1.5Z"/>
    </g>
    <g id="Shape1" data-name="Shape">
      <path class="st9" d="M323.53,439.73c-64.32-50.59-124.32-81.61-134.01-69.29-6.05,7.69,8.95,30.47,36.74,58.82-10.03-3.41-17.3-3.6-20.46.11-7.9,9.28,12.37,40.01,46.93,73.29-21.58-10.33-38.22-14.05-42.02-8.28-5.68,8.63,19.43,35.2,56.1,59.33,36.67,24.14,70.99,36.71,76.68,28.08,2-3.03.18-8.29-4.6-14.87,18.2,9.28,31.76,12.29,36.42,6.82,5.23-6.14-1.88-21.69-17.32-41.15,33.42,19.76,58.49,28.63,64.46,21.04,9.69-12.32-34.6-63.31-98.93-113.9Z"/>
      <path d="M336.17,585.95c-5.85,0-13.4-2.18-19.88-4.55-14.58-5.34-32.43-14.74-50.25-26.48-17.82-11.73-33.51-24.41-44.18-35.69-7.85-8.31-16.37-19.5-12.33-25.63,4.89-7.42,23.63-1.09,36.41,4.39-14.36-14.4-26.22-28.48-33.79-40.19-4.34-6.71-7.22-12.55-8.58-17.35-1.5-5.31-1.11-9.35,1.15-12.01,2.92-3.43,8.53-4.13,16.71-2.11-12.12-12.68-21.55-24.18-27.43-33.44-7.09-11.18-8.98-19.03-5.6-23.33,6.61-8.41,29.92,1.16,48.31,10.67,25.39,13.13,56.54,33.86,87.72,58.38,31.18,24.52,58.67,49.91,77.41,71.49,13.57,15.63,28.37,36.02,21.75,44.43-3.34,4.24-11.25,4.31-23.53.21-9.79-3.27-22.32-9.2-36.52-17.26,9.16,12.45,19.36,29.59,12.88,37.21-5.68,6.66-20.47,1.95-33.45-4.16,2.98,5.24,3.57,9.28,1.74,12.07-1.6,2.43-4.7,3.36-8.54,3.36ZM218.02,493.1c-3.09,0-5.19.7-6.1,2.08-1.35,2.04-.04,5.51,1.29,8.06,2.06,3.94,5.67,8.66,10.73,14.01,10.52,11.13,26.03,23.65,43.68,35.27,17.64,11.61,35.28,20.91,49.66,26.18,6.92,2.53,12.67,3.98,17.11,4.32,2.87.21,6.57.04,7.91-2,1.55-2.35-.07-7.05-4.56-13.24-.39-.54-.36-1.28.07-1.78.43-.51,1.16-.65,1.75-.35,9.12,4.65,16.83,7.62,22.91,8.81,4.05.8,9.37,1.16,11.76-1.64,2.14-2.52,1.75-7.38-1.14-14.08-2.96-6.88-8.57-15.61-16.22-25.25-.43-.54-.41-1.32.04-1.84.46-.52,1.22-.65,1.82-.29,16.62,9.83,31.23,16.97,42.25,20.65,10.69,3.57,17.92,3.83,20.35.74,4.09-5.2-4.01-20.44-21.66-40.76-18.63-21.45-45.98-46.7-77.02-71.11-31.04-24.41-62.03-45.04-87.26-58.09-23.92-12.36-40.63-16.64-44.72-11.44-2.47,3.14-.42,10.25,5.77,20,6.37,10.05,17.05,22.82,30.87,36.92.47.48.55,1.21.19,1.77-.36.56-1.05.81-1.68.6-9.59-3.26-16.3-3.37-18.9-.32-3.29,3.86-.5,13.31,7.65,25.93,8.45,13.07,22.36,29.2,39.18,45.39.51.49.59,1.28.18,1.86-.4.58-1.17.78-1.8.48-10.67-5.11-20.13-8.59-27.34-10.07-2.59-.53-4.86-.79-6.76-.79Z"/>
    </g>
  </g>
  <g id="Hand">
    <g id="Hand1" data-name="Hand">
      <g id="Hand2" data-name="Hand">
        <path class="st10" d="M687.62,300.82c-4.72-73.48-48.55-102.65-96.94-112.17-3.58-.79-7.18-1.39-10.76-1.79-34.52-4.77-70.03-.65-94.38,3.68,0,0-32.27,70.48,31.63,81.13,129.15,21.52,6.93,72.15,6.93,120.05v166.53h163.52v-.06c.08-3.67,3.67-200.23,0-257.37Z"/>
        <path d="M687.62,557.01s-.02,0-.03,0c-.8-.02-1.43-.67-1.41-1.47.04-1.97,3.66-197.6,0-254.63-1.3-20.21-5.69-38.03-13.06-52.97-6.68-13.53-15.96-25.02-27.58-34.14-20.08-15.75-47.49-24.87-81.48-27.11-23.62-1.55-49.95.21-78.27,5.25-.78.14-1.53-.38-1.67-1.17-.14-.78.38-1.53,1.17-1.67,28.54-5.08,55.11-6.86,78.96-5.29,34.58,2.27,62.53,11.6,83.07,27.72,25.16,19.75,39.21,49.75,41.74,89.19,3.67,57.15.04,252.9,0,254.87-.01.79-.66,1.41-1.44,1.41Z"/>
        <g>
          <line class="st4" x1="524.11" y1="406.2" x2="524.11" y2="555.57"/>
          <path d="M524.11,557.01c-.8,0-1.44-.64-1.44-1.44v-149.37c0-.8.64-1.44,1.44-1.44s1.44.64,1.44,1.44v149.37c0,.8-.64,1.44-1.44,1.44Z"/>
        </g>
        <g>
          <path class="st10" d="M485.54,190.54c-88.25,15.7-153.15-8.17-147.07,46.69,6.06,54.7,109.1,16.36,150.88,13.34,0,0,21.32-.12,21.3-32.55-.02-30.93-25.11-27.47-25.11-27.47Z"/>
          <path d="M383.96,267.86c-15.63,0-27.11-2.8-34.9-8.49-6.91-5.04-10.95-12.44-12.01-22-1.26-11.4.74-20,6.12-26.27,5.42-6.32,14.31-10.36,27.98-12.71,12.26-2.11,27.17-2.74,44.42-3.48,23.04-.98,49.16-2.08,77.12-7.05.78-.14,1.53.38,1.67,1.17.14.78-.38,1.53-1.17,1.67-28.15,5.01-54.37,6.12-77.5,7.1-33.23,1.41-59.47,2.52-70.34,15.19-4.83,5.63-6.61,13.51-5.44,24.08.5,4.5,1.71,8.49,3.6,11.87,1.78,3.18,4.22,5.91,7.25,8.12,20.21,14.74,64.58,5.75,100.24-1.48,14.52-2.94,28.23-5.72,38.26-6.45.79-.06,1.48.54,1.54,1.33.06.79-.54,1.48-1.33,1.54-9.84.71-23.47,3.47-37.89,6.4-18,3.65-38.39,7.78-56.7,9.07-3.84.27-7.47.4-10.9.4Z"/>
        </g>
        <g>
          <path class="st10" d="M524.16,271.37c-23.04-9.09-72.04-2.24-75.68,12.42-7.88,31.75-27.69,92.12-74.08,77.31-39.67-12.67,4.87-115.92,25.72-131.12,19.74-14.39,58.96-29.55,97.96-22.27"/>
          <path d="M388.3,364.83c-4.62,0-9.41-.79-14.34-2.36-8.91-2.85-14.37-10.07-16.21-21.47-2.51-15.51,2.02-39.08,12.42-64.66,9.09-22.36,20.79-41.46,29.11-47.52,11.1-8.09,26.49-15.19,42.23-19.49,19.43-5.3,39.08-6.35,56.84-3.04.78.15,1.3.9,1.15,1.68s-.9,1.3-1.68,1.15c-17.34-3.23-36.55-2.2-55.56,2.98-15.41,4.21-30.46,11.14-41.29,19.04-15.48,11.29-45.9,75.28-40.38,109.39,1.66,10.24,6.45,16.7,14.24,19.19,11.32,3.62,21.79,2.8,31.13-2.41,10.29-5.75,19.43-16.89,27.16-33.12,5.39-11.31,9.95-24.64,13.95-40.75.9-3.63,4.11-6.89,9.52-9.68,7.92-4.08,20.07-6.89,33.33-7.7,13.58-.83,26.24.62,34.74,3.97.74.29,1.1,1.13.81,1.87-.29.74-1.13,1.1-1.87.81-8.13-3.21-20.34-4.58-33.51-3.78-12.69.78-24.72,3.54-32.19,7.39-4.58,2.36-7.36,5.06-8.05,7.82-9.93,40.02-24.23,65.49-42.5,75.69-5.96,3.33-12.34,5-19.07,5Z"/>
        </g>
        <g>
          <path class="st10" d="M571.61,294.97c-23.04-9.09-72.04-2.24-75.68,12.42-7.88,31.75-18.3,102.63-67.41,84.89-39.17-14.15-1.79-123.51,19.06-138.7,19.74-14.39,58.96-29.55,97.96-22.27"/>
          <path d="M443.18,396.52c-4.78,0-9.84-.96-15.15-2.88-9.53-3.44-15.36-12.24-17.35-26.15-2.43-17.01,1.19-41.51,9.91-67.23,7.88-23.23,18.14-42,26.14-47.84,11.1-8.09,26.49-15.19,42.23-19.49,19.43-5.3,39.08-6.35,56.84-3.04.78.15,1.3.9,1.15,1.68s-.9,1.3-1.68,1.15c-17.34-3.23-36.55-2.2-55.56,2.99-15.41,4.21-30.46,11.14-41.29,19.04-7.44,5.42-17.53,24.08-25.11,46.43-8.58,25.31-12.15,49.33-9.78,65.9,1.82,12.78,7.03,20.8,15.47,23.85,10.68,3.86,20.18,3.58,28.24-.82,9.16-5,16.69-15.16,23.02-31.04,5.46-13.7,9-29.22,11.85-41.68.85-3.71,1.65-7.22,2.42-10.34.9-3.63,4.11-6.89,9.52-9.68,7.92-4.08,20.07-6.89,33.33-7.7,13.58-.83,26.24.61,34.75,3.97.74.29,1.1,1.13.81,1.87-.29.74-1.13,1.1-1.87.81-8.13-3.21-20.34-4.58-33.51-3.78-12.69.78-24.73,3.54-32.19,7.39-4.58,2.36-7.36,5.06-8.05,7.82-.77,3.09-1.56,6.59-2.41,10.29-2.87,12.56-6.44,28.19-11.98,42.1-6.58,16.54-14.54,27.17-24.31,32.51-4.74,2.59-9.9,3.88-15.45,3.88Z"/>
        </g>
        <g>
          <g>
            <rect class="st4" x="267.83" y="309.24" width="314.4" height="193.92" transform="translate(-43.62 51.21) rotate(-6.56)"/>
            <path d="M279.93,521.92c-.72,0-1.34-.54-1.43-1.28l-22.15-192.65c-.09-.79.48-1.5,1.27-1.6l312.34-35.91c.38-.04.76.07,1.06.3.3.24.49.58.54.96l22.15,192.65c.04.38-.07.76-.3,1.06-.24.3-.58.49-.96.54l-312.34,35.91c-.06,0-.11,0-.17,0ZM259.38,329.1l21.82,189.79,309.48-35.58-21.82-189.79-309.48,35.58Z"/>
          </g>
          <g>
            <polygon class="st4" points="416.83 334.31 279.93 520.48 592.27 484.57 416.83 334.31"/>
            <path d="M279.93,521.92c-.51,0-.99-.27-1.25-.72-.29-.5-.25-1.11.09-1.58l136.9-186.18c.24-.32.6-.53,1-.58.4-.05.8.08,1.1.34l175.44,150.26c.43.37.61.97.44,1.51-.17.55-.64.94-1.21,1.01l-312.34,35.91c-.06,0-.11,0-.16,0ZM417.07,336.41l-134.02,182.27,305.78-35.16-171.76-147.11Z"/>
          </g>
          <g>
            <polygon class="st4" points="257.78 327.83 425.03 406.2 570.12 291.92 257.78 327.83"/>
            <path d="M425.03,407.64c-.21,0-.42-.04-.61-.14l-167.24-78.37c-.58-.27-.91-.9-.81-1.54.1-.64.62-1.12,1.26-1.2l312.34-35.91c.64-.07,1.25.29,1.5.88.25.6.07,1.28-.44,1.68l-145.09,114.28c-.26.2-.57.31-.89.31ZM262.99,328.68l161.84,75.84,140.41-110.59-302.25,34.75Z"/>
          </g>
          <path d="M438.4,486.54c-.72,0-1.34-.54-1.43-1.28-.09-.79.48-1.5,1.27-1.6l77.98-8.97c.79-.09,1.5.48,1.6,1.27.09.79-.48,1.5-1.27,1.6l-77.98,8.97c-.06,0-.11,0-.17,0Z"/>
        </g>
        <g>
          <path class="st10" d="M661.95,284.06s-10.92-41.55-65.04-39.98c-52.45,1.52-46.74,39.98-46.74,39.98,26.01,12.69,18.14,33.35,18.14,33.35-44.2,13.04-84.98,72.59-47.65,96.95,42.58,27.78,97.03-55.99,97.03-55.99,62.45-24.53,44.26-74.3,44.26-74.3Z"/>
          <path d="M539.37,421.44c-6.97,0-13.51-1.96-19.5-5.88-11.8-7.7-16.93-19.33-14.83-33.64,3.9-26.62,32.26-56.52,62.12-65.68.44-1.54,1.36-5.65.38-10.63-1.66-8.43-7.72-15.25-18.01-20.27-.71-.35-1.01-1.21-.66-1.93.35-.71,1.21-1.01,1.93-.66,13.97,6.81,18.37,15.97,19.61,22.46,1.34,7.07-.67,12.47-.75,12.7-.16.42-.51.74-.94.87-14.11,4.16-28.33,13.22-40.02,25.51-11.43,12.01-19.02,25.88-20.8,38.05-1.92,13.11,2.76,23.76,13.56,30.81,7.68,5.01,16.34,6.55,25.73,4.56,18.01-3.8,35.86-19.9,47.67-32.73,12.88-14,21.55-27.27,21.64-27.4.16-.25.4-.45.68-.56,13.99-5.49,24.97-12.73,32.64-21.49,6.1-6.97,10.14-14.94,12-23.68,3.18-14.95-1.16-27.17-1.2-27.3-.27-.75.11-1.57.86-1.85.75-.27,1.57.11,1.85.86.19.52,4.65,13.01,1.35,28.74-1.94,9.25-6.19,17.67-12.61,25.04-7.9,9.06-19.14,16.52-33.4,22.18-1.54,2.31-9.85,14.53-21.64,27.36-7.67,8.34-15.3,15.31-22.67,20.72-9.29,6.81-18.22,11.16-26.55,12.91-2.86.6-5.67.91-8.4.91Z"/>
        </g>
      </g>
      <g>
        <rect class="st4" x="503.72" y="535.15" width="204.63" height="80.94"/>
        <g>
          <path class="st8" d="M708.08,549.75h-204.37c-.73,0-1.32-.59-1.32-1.32s.59-1.32,1.32-1.32h204.37c.73,0,1.32.59,1.32,1.32s-.59,1.32-1.32,1.32Z"/>
          <path class="st8" d="M708.08,576.94h-204.37c-.73,0-1.32-.59-1.32-1.32s.59-1.32,1.32-1.32h204.37c.73,0,1.32.59,1.32,1.32s-.59,1.32-1.32,1.32Z"/>
          <path class="st8" d="M708.08,604.13h-204.37c-.73,0-1.32-.59-1.32-1.32s.59-1.32,1.32-1.32h204.37c.73,0,1.32.59,1.32,1.32s-.59,1.32-1.32,1.32Z"/>
        </g>
        <g>
          <path class="st8" d="M533.42,616.16c-.73,0-1.32-.59-1.32-1.32v-79.69c0-.73.59-1.32,1.32-1.32s1.32.59,1.32,1.32v79.69c0,.73-.59,1.32-1.32,1.32Z"/>
          <path class="st8" d="M581.83,616.16c-.73,0-1.32-.59-1.32-1.32v-79.69c0-.73.59-1.32,1.32-1.32s1.32.59,1.32,1.32v79.69c0,.73-.59,1.32-1.32,1.32Z"/>
          <path class="st8" d="M630.24,616.16c-.73,0-1.32-.59-1.32-1.32v-79.69c0-.73.59-1.32,1.32-1.32s1.32.59,1.32,1.32v79.69c0,.73-.59,1.32-1.32,1.32Z"/>
          <path class="st8" d="M678.65,616.16c-.73,0-1.32-.59-1.32-1.32v-79.69c0-.73.59-1.32,1.32-1.32s1.32.59,1.32,1.32v79.69c0,.73-.59,1.32-1.32,1.32Z"/>
        </g>
        <path d="M708.35,617.53h-204.63c-.8,0-1.44-.64-1.44-1.44v-80.94c0-.8.64-1.44,1.44-1.44h204.63c.8,0,1.44.64,1.44,1.44v80.94c0,.8-.64,1.44-1.44,1.44ZM505.16,614.65h201.75v-78.06h-201.75v78.06Z"/>
      </g>
    </g>
    <g id="Mouse_Pointer">
      <path class="st0" d="M381.94,454.53l11.46-80.81c.59-4.13-3.67-7.26-7.44-5.46l-73.67,35.13,25.44,7.96-23.15,31.52,29,21.29,23.15-31.52,15.21,21.89Z"/>
      <path d="M343.58,465.61c-.3,0-.59-.09-.85-.28l-29-21.29c-.31-.23-.51-.57-.57-.94-.06-.38.04-.76.26-1.07l21.95-29.9-23.51-7.36c-.57-.18-.96-.68-1.01-1.27s.28-1.15.82-1.4l73.67-35.13c2.26-1.08,4.81-.84,6.82.64,2.02,1.48,3.01,3.84,2.66,6.32l-11.46,80.81c-.08.59-.52,1.06-1.09,1.2-.58.14-1.18-.09-1.52-.58l-14.06-20.23-21.95,29.9c-.28.38-.72.59-1.16.59ZM316.6,442.57l26.68,19.59,22.29-30.36c.28-.37.72-.6,1.18-.59.47,0,.9.24,1.16.62l13.11,18.87,10.95-77.17c.2-1.41-.37-2.75-1.51-3.59-1.15-.84-2.6-.98-3.88-.37l-70.36,33.55,21.93,6.86c.44.14.79.48.94.93.15.44.07.93-.21,1.3l-22.29,30.36Z"/>
    </g>
    <g id="Shape2" data-name="Shape">
      <path class="st1" d="M736.14,354.42s-40.85,69.9-81.29,22.48c0,0,33.83,45.95-22.97,62.97,0,0,49.56,5.92,16.22,46.29,0,0,47.37-39.21,53.69,15.54,0,0-1.77-43.07,78.02-45.19,0,0-51.18-2.15-53.05-17.15-1.62-13.01,59.43-39.4,59.43-39.4,0,0-54.25,15.06-63.39,4.92-9.14-10.14,13.33-50.47,13.33-50.47Z"/>
      <path d="M701.79,503.15c-.72,0-1.34-.54-1.43-1.27-1.68-14.56-6.44-23.51-14.14-26.61-7.78-3.13-17.41.24-24.12,3.62-7.43,3.75-13.03,8.35-13.08,8.39-.57.47-1.41.43-1.94-.09-.52-.52-.57-1.36-.09-1.94,9.75-11.8,13.16-21.61,10.14-29.14-4.89-12.21-25.22-14.78-25.42-14.8-.68-.08-1.21-.63-1.26-1.31-.06-.68.37-1.31,1.02-1.5,16.65-4.99,26.91-12.96,30.5-23.68,5.86-17.52-8.13-36.87-8.27-37.06-.46-.62-.34-1.5.27-1.98.61-.48,1.49-.4,1.99.19,9.83,11.52,20.49,16.86,31.69,15.87,13.51-1.2,25.6-11.44,33.37-19.83,8.51-9.19,13.84-18.23,13.89-18.32.4-.68,1.27-.91,1.96-.52.69.39.93,1.26.54,1.95-.06.1-5.63,10.15-10.02,21.28-5.55,14.09-6.8,23.86-3.5,27.52,1.93,2.15,8.9,5.12,33.79.89,14.47-2.46,28.01-6.2,28.14-6.23.73-.2,1.49.19,1.74.91.25.71-.09,1.5-.79,1.8-.15.07-15.39,6.67-30.22,14.77-8.67,4.74-15.5,9.04-20.3,12.8-3.18,2.49-8.45,7.14-8.06,10.33.67,5.37,9.91,9.97,26.03,12.96,12.78,2.37,25.52,2.93,25.65,2.93.78.03,1.39.67,1.38,1.45,0,.78-.63,1.41-1.4,1.43-17.36.46-32.17,2.93-44.01,7.34-9.5,3.54-17.13,8.33-22.69,14.24-5.33,5.68-7.74,11.38-8.83,15.16-1.18,4.11-1.09,6.92-1.09,6.95.03.77-.56,1.43-1.33,1.49-.04,0-.07,0-.11,0ZM679.28,471.11c2.89,0,5.56.49,8.01,1.48,7.07,2.84,11.93,9.73,14.49,20.53,1.37-4.38,4.03-9.93,9.2-15.46,5.85-6.26,13.85-11.31,23.78-15.02,7.92-2.96,17.1-5.07,27.44-6.31-2.73-.37-5.6-.81-8.47-1.34-17.98-3.33-27.53-8.52-28.39-15.44-.44-3.55,2.55-7.79,9.14-12.96,4.92-3.86,11.89-8.25,20.7-13.06,5.87-3.2,11.79-6.17,16.84-8.61-4.2.93-8.98,1.9-13.86,2.73-20.31,3.45-32.23,2.86-36.43-1.8-4.19-4.65-3.19-14.92,2.97-30.53.82-2.07,1.67-4.1,2.53-6.05-1.26,1.51-2.62,3.07-4.07,4.64-5.14,5.55-10.4,10.09-15.63,13.47-6.62,4.28-13.22,6.74-19.63,7.31-9.29.83-18.18-2.28-26.51-9.24.46.99.92,2.05,1.36,3.16,3.91,9.85,4.59,19.21,1.96,27.09-3.5,10.47-12.63,18.46-27.17,23.8,1.82.45,3.95,1.08,6.19,1.93,8.22,3.13,13.79,7.83,16.09,13.59,2.76,6.9,1,15.22-5.22,24.79,1.82-1.14,3.9-2.35,6.17-3.49,6.89-3.48,13.09-5.23,18.53-5.23Z"/>
    </g>
  </g>
</svg>