<?xml version="1.0" encoding="UTF-8" standalone="no"?>
<!DOCTYPE svg PUBLIC "-//W3C//DTD SVG 1.1//EN" "http://www.w3.org/Graphics/SVG/1.1/DTD/svg11.dtd">
<svg width="100%" height="100%" viewBox="0 0 454 435" version="1.1" xmlns="http://www.w3.org/2000/svg" xmlns:xlink="http://www.w3.org/1999/xlink" xml:space="preserve" xmlns:serif="http://www.serif.com/" style="fill-rule:evenodd;clip-rule:evenodd;stroke-linejoin:round;stroke-miterlimit:2;">
    <g transform="matrix(1,0,0,1,-256.340651,-183.257512)">
        <g id="Hand2">
            <path d="M687.62,300.82C682.9,227.34 639.07,198.17 590.68,188.65C587.1,187.86 583.5,187.26 579.92,186.86C545.4,182.09 509.89,186.21 485.54,190.54C485.54,190.54 453.27,261.02 517.17,271.67C646.32,293.19 524.1,343.82 524.1,391.72L524.1,558.25L687.62,558.25L687.62,558.19C687.7,554.52 691.29,357.96 687.62,300.82Z" style="fill:rgb(246,242,10);fill-rule:nonzero;"/>
            <path d="M687.62,557.01L687.59,557.01C686.79,556.99 686.16,556.34 686.18,555.54C686.22,553.57 689.84,357.94 686.18,300.91C684.88,280.7 680.49,262.88 673.12,247.94C666.44,234.41 657.16,222.92 645.54,213.8C625.46,198.05 598.05,188.93 564.06,186.69C540.44,185.14 514.11,186.9 485.79,191.94C485.01,192.08 484.26,191.56 484.12,190.77C483.98,189.99 484.5,189.24 485.29,189.1C513.83,184.02 540.4,182.24 564.25,183.81C598.83,186.08 626.78,195.41 647.32,211.53C672.48,231.28 686.53,261.28 689.06,300.72C692.73,357.87 689.1,553.62 689.06,555.59C689.05,556.38 688.4,557 687.62,557L687.62,557.01Z" style="fill-rule:nonzero;"/>
            <g>
                <path d="M524.11,406.2L524.11,555.57" style="fill:none;fill-rule:nonzero;"/>
                <path d="M524.11,557.01C523.31,557.01 522.67,556.37 522.67,555.57L522.67,406.2C522.67,405.4 523.31,404.76 524.11,404.76C524.91,404.76 525.55,405.4 525.55,406.2L525.55,555.57C525.55,556.37 524.91,557.01 524.11,557.01Z" style="fill-rule:nonzero;"/>
            </g>
            <g>
                <path d="M485.54,190.54C397.29,206.24 332.39,182.37 338.47,237.23C344.53,291.93 447.57,253.59 489.35,250.57C489.35,250.57 510.67,250.45 510.65,218.02C510.63,187.09 485.54,190.55 485.54,190.55L485.54,190.54Z" style="fill:rgb(246,242,10);fill-rule:nonzero;"/>
                <path d="M383.96,267.86C368.33,267.86 356.85,265.06 349.06,259.37C342.15,254.33 338.11,246.93 337.05,237.37C335.79,225.97 337.79,217.37 343.17,211.1C348.59,204.78 357.48,200.74 371.15,198.39C383.41,196.28 398.32,195.65 415.57,194.91C438.61,193.93 464.73,192.83 492.69,187.86C493.47,187.72 494.22,188.24 494.36,189.03C494.5,189.81 493.98,190.56 493.19,190.7C465.04,195.71 438.82,196.82 415.69,197.8C382.46,199.21 356.22,200.32 345.35,212.99C340.52,218.62 338.74,226.5 339.91,237.07C340.41,241.57 341.62,245.56 343.51,248.94C345.29,252.12 347.73,254.85 350.76,257.06C370.97,271.8 415.34,262.81 451,255.58C465.52,252.64 479.23,249.86 489.26,249.13C490.05,249.07 490.74,249.67 490.8,250.46C490.86,251.25 490.26,251.94 489.47,252C479.63,252.71 466,255.47 451.58,258.4C433.58,262.05 413.19,266.18 394.88,267.47C391.04,267.74 387.41,267.87 383.98,267.87L383.96,267.86Z" style="fill-rule:nonzero;"/>
            </g>
            <g>
                <path d="M524.16,271.37C501.12,262.28 452.12,269.13 448.48,283.79C440.6,315.54 420.79,375.91 374.4,361.1C334.73,348.43 379.27,245.18 400.12,229.98C419.86,215.59 459.08,200.43 498.08,207.71" style="fill:rgb(246,242,10);fill-rule:nonzero;"/>
                <path d="M388.3,364.83C383.68,364.83 378.89,364.04 373.96,362.47C365.05,359.62 359.59,352.4 357.75,341C355.24,325.49 359.77,301.92 370.17,276.34C379.26,253.98 390.96,234.88 399.28,228.82C410.38,220.73 425.77,213.63 441.51,209.33C460.94,204.03 480.59,202.98 498.35,206.29C499.13,206.44 499.65,207.19 499.5,207.97C499.35,208.75 498.6,209.27 497.82,209.12C480.48,205.89 461.27,206.92 442.26,212.1C426.85,216.31 411.8,223.24 400.97,231.14C385.49,242.43 355.07,306.42 360.59,340.53C362.25,350.77 367.04,357.23 374.83,359.72C386.15,363.34 396.62,362.52 405.96,357.31C416.25,351.56 425.39,340.42 433.12,324.19C438.51,312.88 443.07,299.55 447.07,283.44C447.97,279.81 451.18,276.55 456.59,273.76C464.51,269.68 476.66,266.87 489.92,266.06C503.5,265.23 516.16,266.68 524.66,270.03C525.4,270.32 525.76,271.16 525.47,271.9C525.18,272.64 524.34,273 523.6,272.71C515.47,269.5 503.26,268.13 490.09,268.93C477.4,269.71 465.37,272.47 457.9,276.32C453.32,278.68 450.54,281.38 449.85,284.14C439.92,324.16 425.62,349.63 407.35,359.83C401.39,363.16 395.01,364.83 388.28,364.83L388.3,364.83Z" style="fill-rule:nonzero;"/>
            </g>
            <g>
                <path d="M571.61,294.97C548.57,285.88 499.57,292.73 495.93,307.39C488.05,339.14 477.63,410.02 428.52,392.28C389.35,378.13 426.73,268.77 447.58,253.58C467.32,239.19 506.54,224.03 545.54,231.31" style="fill:rgb(246,242,10);fill-rule:nonzero;"/>
                <path d="M443.18,396.52C438.4,396.52 433.34,395.56 428.03,393.64C418.5,390.2 412.67,381.4 410.68,367.49C408.25,350.48 411.87,325.98 420.59,300.26C428.47,277.03 438.73,258.26 446.73,252.42C457.83,244.33 473.22,237.23 488.96,232.93C508.39,227.63 528.04,226.58 545.8,229.89C546.58,230.04 547.1,230.79 546.95,231.57C546.8,232.35 546.05,232.87 545.27,232.72C527.93,229.49 508.72,230.52 489.71,235.71C474.3,239.92 459.25,246.85 448.42,254.75C440.98,260.17 430.89,278.83 423.31,301.18C414.73,326.49 411.16,350.51 413.53,367.08C415.35,379.86 420.56,387.88 429,390.93C439.68,394.79 449.18,394.51 457.24,390.11C466.4,385.11 473.93,374.95 480.26,359.07C485.72,345.37 489.26,329.85 492.11,317.39C492.96,313.68 493.76,310.17 494.53,307.05C495.43,303.42 498.64,300.16 504.05,297.37C511.97,293.29 524.12,290.48 537.38,289.67C550.96,288.84 563.62,290.28 572.13,293.64C572.87,293.93 573.23,294.77 572.94,295.51C572.65,296.25 571.81,296.61 571.07,296.32C562.94,293.11 550.73,291.74 537.56,292.54C524.87,293.32 512.83,296.08 505.37,299.93C500.79,302.29 498.01,304.99 497.32,307.75C496.55,310.84 495.76,314.34 494.91,318.04C492.04,330.6 488.47,346.23 482.93,360.14C476.35,376.68 468.39,387.31 458.62,392.65C453.88,395.24 448.72,396.53 443.17,396.53L443.18,396.52Z" style="fill-rule:nonzero;"/>
            </g>
            <g>
                <g>
                    <g transform="matrix(0.993453,-0.114244,0.114244,0.993453,-43.62,51.21)">
                        <rect x="267.83" y="309.24" width="314.4" height="193.92" style="fill:white;"/>
                    </g>
                    <path d="M279.93,521.92C279.21,521.92 278.59,521.38 278.5,520.64L256.35,327.99C256.26,327.2 256.83,326.49 257.62,326.39L569.96,290.48C570.34,290.44 570.72,290.55 571.02,290.78C571.32,291.02 571.51,291.36 571.56,291.74L593.71,484.39C593.75,484.77 593.64,485.15 593.41,485.45C593.17,485.75 592.83,485.94 592.45,485.99L280.11,521.9L279.94,521.9L279.93,521.92ZM259.38,329.1L281.2,518.89L590.68,483.31L568.86,293.52L259.38,329.1Z" style="fill-rule:nonzero;"/>
                </g>
                <g>
                    <path d="M416.83,334.31L279.93,520.48L592.27,484.57L416.83,334.31Z" style="fill:white;fill-rule:nonzero;"/>
                    <path d="M279.93,521.92C279.42,521.92 278.94,521.65 278.68,521.2C278.39,520.7 278.43,520.09 278.77,519.62L415.67,333.44C415.91,333.12 416.27,332.91 416.67,332.86C417.07,332.81 417.47,332.94 417.77,333.2L593.21,483.46C593.64,483.83 593.82,484.43 593.65,484.97C593.48,485.52 593.01,485.91 592.44,485.98L280.1,521.89L279.94,521.89L279.93,521.92ZM417.07,336.41L283.05,518.68L588.83,483.52L417.07,336.41Z" style="fill-rule:nonzero;"/>
                </g>
                <g>
                    <path d="M257.78,327.83L425.03,406.2L570.12,291.92L257.78,327.83Z" style="fill:white;fill-rule:nonzero;"/>
                    <path d="M425.03,407.64C424.82,407.64 424.61,407.6 424.42,407.5L257.18,329.13C256.6,328.86 256.27,328.23 256.37,327.59C256.47,326.95 256.99,326.47 257.63,326.39L569.97,290.48C570.61,290.41 571.22,290.77 571.47,291.36C571.72,291.96 571.54,292.64 571.03,293.04L425.94,407.32C425.68,407.52 425.37,407.63 425.05,407.63L425.03,407.64ZM262.99,328.68L424.83,404.52L565.24,293.93L262.99,328.68Z" style="fill-rule:nonzero;"/>
                </g>
                <path d="M438.4,486.54C437.68,486.54 437.06,486 436.97,485.26C436.88,484.47 437.45,483.76 438.24,483.66L516.22,474.69C517.01,474.6 517.72,475.17 517.82,475.96C517.91,476.75 517.34,477.46 516.55,477.56L438.57,486.53L438.4,486.53L438.4,486.54Z" style="fill-rule:nonzero;"/>
            </g>
            <g>
                <path d="M661.95,284.06C661.95,284.06 651.03,242.51 596.91,244.08C544.46,245.6 550.17,284.06 550.17,284.06C576.18,296.75 568.31,317.41 568.31,317.41C524.11,330.45 483.33,390 520.66,414.36C563.24,442.14 617.69,358.37 617.69,358.37C680.14,333.84 661.95,284.07 661.95,284.07L661.95,284.06Z" style="fill:rgb(246,242,10);fill-rule:nonzero;"/>
                <path d="M539.37,421.44C532.4,421.44 525.86,419.48 519.87,415.56C508.07,407.86 502.94,396.23 505.04,381.92C508.94,355.3 537.3,325.4 567.16,316.24C567.6,314.7 568.52,310.59 567.54,305.61C565.88,297.18 559.82,290.36 549.53,285.34C548.82,284.99 548.52,284.13 548.87,283.41C549.22,282.7 550.08,282.4 550.8,282.75C564.77,289.56 569.17,298.72 570.41,305.21C571.75,312.28 569.74,317.68 569.66,317.91C569.5,318.33 569.15,318.65 568.72,318.78C554.61,322.94 540.39,332 528.7,344.29C517.27,356.3 509.68,370.17 507.9,382.34C505.98,395.45 510.66,406.1 521.46,413.15C529.14,418.16 537.8,419.7 547.19,417.71C565.2,413.91 583.05,397.81 594.86,384.98C607.74,370.98 616.41,357.71 616.5,357.58C616.66,357.33 616.9,357.13 617.18,357.02C631.17,351.53 642.15,344.29 649.82,335.53C655.92,328.56 659.96,320.59 661.82,311.85C665,296.9 660.66,284.68 660.62,284.55C660.35,283.8 660.73,282.98 661.48,282.7C662.23,282.43 663.05,282.81 663.33,283.56C663.52,284.08 667.98,296.57 664.68,312.3C662.74,321.55 658.49,329.97 652.07,337.34C644.17,346.4 632.93,353.86 618.67,359.52C617.13,361.83 608.82,374.05 597.03,386.88C589.36,395.22 581.73,402.19 574.36,407.6C565.07,414.41 556.14,418.76 547.81,420.51C544.95,421.11 542.14,421.42 539.41,421.42L539.37,421.44Z" style="fill-rule:nonzero;"/>
            </g>
        </g>
        <g>
            <rect x="503.72" y="535.15" width="204.63" height="80.94" style="fill:white;"/>
            <path d="M708.35,617.53L503.72,617.53C502.92,617.53 502.28,616.89 502.28,616.09L502.28,535.15C502.28,534.35 502.92,533.71 503.72,533.71L708.35,533.71C709.15,533.71 709.79,534.35 709.79,535.15L709.79,616.09C709.79,616.89 709.15,617.53 708.35,617.53ZM505.16,614.65L706.91,614.65L706.91,536.59L505.16,536.59L505.16,614.65Z" style="fill-rule:nonzero;"/>
        </g>
    </g>
</svg>
