<?xml version="1.0" encoding="UTF-8" standalone="no"?>
<!DOCTYPE svg PUBLIC "-//W3C//DTD SVG 1.1//EN" "http://www.w3.org/Graphics/SVG/1.1/DTD/svg11.dtd">
<svg width="100%" height="100%" viewBox="0 0 688 491" version="1.1" xmlns="http://www.w3.org/2000/svg" xmlns:xlink="http://www.w3.org/1999/xlink" xml:space="preserve" xmlns:serif="http://www.serif.com/" style="fill-rule:evenodd;clip-rule:evenodd;stroke-linejoin:round;stroke-miterlimit:2;">
    <g transform="matrix(1,0,0,1,-136.256256,-122.351862)">
        <g id="Lines1">
            <path d="M367.91,613.02L168.46,613.02C167.7,613.02 167.07,612.43 167.02,611.67C166.97,610.91 167.52,610.25 168.27,610.15C168.43,610.13 184.71,607.98 200.66,604.68C209.99,602.75 217.38,600.8 222.62,598.91C231.15,595.82 231.43,593.78 231.39,593.4C231.39,593.32 231.13,591.48 222.12,589.15C216.81,587.78 209.44,586.48 200.21,585.29C184.43,583.26 168.52,582.24 168.36,582.23C167.57,582.18 166.96,581.5 167.01,580.7C167.06,579.91 167.74,579.31 168.54,579.35C168.7,579.36 184.69,580.38 200.56,582.42C209.91,583.62 217.41,584.95 222.83,586.35C230.51,588.33 234.03,590.43 234.25,593.15C234.5,596.19 231.11,598.87 223.58,601.6C218.21,603.55 210.69,605.53 201.22,607.49C196.43,608.48 191.62,609.37 187.21,610.13L367.89,610.13C368.69,610.13 369.33,610.77 369.33,611.57C369.33,612.37 368.69,613.01 367.89,613.01L367.91,613.02Z" style="fill:rgb(111,159,255);fill-rule:nonzero;"/>
            <path d="M137.7,293.59C137.2,293.59 136.72,293.33 136.45,292.87C136.05,292.18 136.29,291.3 136.98,290.9C137.33,290.7 171.87,270.84 204.99,249.44C224.42,236.88 239.55,226.26 249.98,217.88C267.4,203.86 267.1,199.68 266.59,198.73C266.29,198.17 265.73,197.8 264.87,197.58C262.25,196.91 256,197.49 241.1,204.07C231.34,208.38 219.04,214.74 204.55,222.98C179.84,237.02 157.04,251.82 156.81,251.96C156.19,252.36 155.37,252.23 154.91,251.66C154.45,251.09 154.49,250.26 155.01,249.74C155.11,249.64 164.75,239.97 173.77,229.5C190.59,209.98 189.74,205.76 189.4,205.11C189.07,204.49 186.38,201.71 165.17,207.81C153.65,211.12 142.46,215.42 142.35,215.47C141.61,215.76 140.77,215.39 140.49,214.64C140.2,213.9 140.57,213.06 141.32,212.78C141.43,212.74 152.72,208.4 164.36,205.05C186.36,198.72 190.64,201.29 191.95,203.77C193.15,206.06 191.95,209.84 188.15,215.67C185.41,219.88 181.3,225.17 175.94,231.39C172.3,235.62 168.56,239.71 165.38,243.11C174.41,237.45 188.43,228.83 203.13,220.48C217.71,212.2 230.09,205.79 239.95,201.44C252.69,195.81 261.08,193.64 265.6,194.79C267.26,195.21 268.45,196.08 269.14,197.37C271.43,201.62 266.08,208.64 251.8,220.13C241.3,228.58 226.08,239.26 206.56,251.87C173.38,273.32 138.77,293.21 138.43,293.41C138.2,293.54 137.96,293.6 137.71,293.6L137.7,293.59Z" style="fill:rgb(111,159,255);fill-rule:nonzero;"/>
            <path d="M714.55,296.91C714.39,296.91 714.22,296.88 714.06,296.82C713.33,296.56 712.94,295.76 713.18,295.02C713.3,294.66 724.91,258.49 730.23,219.53C733.35,196.72 733.73,177.43 731.37,162.22C728.47,143.5 721.39,130.99 710.34,125.06C709.64,124.68 709.38,123.81 709.75,123.11C710.13,122.41 711,122.15 711.7,122.52C723.59,128.91 731.17,142.12 734.21,161.79C736.61,177.29 736.23,196.86 733.07,219.95C730.39,239.58 726.12,258.5 722.51,272.55C727.34,261.17 733.65,246.69 740.4,232.09C748.97,213.55 756.58,198.46 763.02,187.22C771.32,172.74 777.58,164.78 782.15,162.89C783.58,162.3 784.91,162.26 786.09,162.77C787.61,163.42 788.73,164.68 789.42,166.51C792.01,173.34 788.57,189.36 779.2,214.13C775.8,223.1 772.21,231.66 769.42,238.07L821.15,171.29C821.64,170.66 822.54,170.55 823.17,171.03C823.8,171.52 823.91,172.42 823.43,173.05L764.32,249.36C763.87,249.94 763.06,250.09 762.43,249.71C761.8,249.33 761.57,248.53 761.88,247.87C761.96,247.71 769.65,231.25 776.52,213.1C787.87,183.11 788.34,171.77 786.73,167.54C786.32,166.46 785.74,165.76 784.95,165.43C784.5,165.24 783.95,165.28 783.25,165.57C780.57,166.68 775.31,171.58 765.52,188.66C759.12,199.82 751.55,214.84 743.01,233.3C728.46,264.76 715.99,295.7 715.87,296.01C715.64,296.57 715.11,296.91 714.53,296.91L714.55,296.91Z" style="fill:rgb(111,159,255);fill-rule:nonzero;"/>
        </g>
    </g>
</svg>
