<?xml version="1.0" encoding="UTF-8" standalone="no"?>
<!DOCTYPE svg PUBLIC "-//W3C//DTD SVG 1.1//EN" "http://www.w3.org/Graphics/SVG/1.1/DTD/svg11.dtd">
<svg width="100%" height="100%" viewBox="0 0 85 100" version="1.1" xmlns="http://www.w3.org/2000/svg" xmlns:xlink="http://www.w3.org/1999/xlink" xml:space="preserve" xmlns:serif="http://www.serif.com/" style="fill-rule:evenodd;clip-rule:evenodd;stroke-linejoin:round;stroke-miterlimit:2;">
    <g transform="matrix(1,0,0,1,-310.845016,-366.301691)">
        <g id="Mouse_Pointer">
            <path d="M381.94,454.53L393.4,373.72C393.99,369.59 389.73,366.46 385.96,368.26L312.29,403.39L337.73,411.35L314.58,442.87L343.58,464.16L366.73,432.64L381.94,454.53Z" style="fill:rgb(207,201,193);fill-rule:nonzero;"/>
            <path d="M343.58,465.61C343.28,465.61 342.99,465.52 342.73,465.33L313.73,444.04C313.42,443.81 313.22,443.47 313.16,443.1C313.1,442.72 313.2,442.34 313.42,442.03L335.37,412.13L311.86,404.77C311.29,404.59 310.9,404.09 310.85,403.5C310.8,402.91 311.13,402.35 311.67,402.1L385.34,366.97C387.6,365.89 390.15,366.13 392.16,367.61C394.18,369.09 395.17,371.45 394.82,373.93L383.36,454.74C383.28,455.33 382.84,455.8 382.27,455.94C381.69,456.08 381.09,455.85 380.75,455.36L366.69,435.13L344.74,465.03C344.46,465.41 344.02,465.62 343.58,465.62L343.58,465.61ZM316.6,442.57L343.28,462.16L365.57,431.8C365.85,431.43 366.29,431.2 366.75,431.21C367.22,431.21 367.65,431.45 367.91,431.83L381.02,450.7L391.97,373.53C392.17,372.12 391.6,370.78 390.46,369.94C389.31,369.1 387.86,368.96 386.58,369.57L316.22,403.12L338.15,409.98C338.59,410.12 338.94,410.46 339.09,410.91C339.24,411.35 339.16,411.84 338.88,412.21L316.59,442.57L316.6,442.57Z" style="fill-rule:nonzero;"/>
        </g>
    </g>
</svg>
