<?xml version="1.0" encoding="UTF-8" standalone="no"?>
<!DOCTYPE svg PUBLIC "-//W3C//DTD SVG 1.1//EN" "http://www.w3.org/Graphics/SVG/1.1/DTD/svg11.dtd">
<svg width="100%" height="100%" viewBox="0 0 158 151" version="1.1" xmlns="http://www.w3.org/2000/svg" xmlns:xlink="http://www.w3.org/1999/xlink" xml:space="preserve" xmlns:serif="http://www.serif.com/" style="fill-rule:evenodd;clip-rule:evenodd;stroke-linejoin:round;stroke-miterlimit:2;">
    <g transform="matrix(1,0,0,1,-630.444426,-352.980344)">
        <g id="Shape2">
            <path d="M736.14,354.42C736.14,354.42 695.29,424.32 654.85,376.9C654.85,376.9 688.68,422.85 631.88,439.87C631.88,439.87 681.44,445.79 648.1,486.16C648.1,486.16 695.47,446.95 701.79,501.7C701.79,501.7 700.02,458.63 779.81,456.51C779.81,456.51 728.63,454.36 726.76,439.36C725.14,426.35 786.19,399.96 786.19,399.96C786.19,399.96 731.94,415.02 722.8,404.88C713.66,394.74 736.13,354.41 736.13,354.41L736.14,354.42Z" style="fill:rgb(137,209,255);fill-rule:nonzero;"/>
            <path d="M701.79,503.15C701.07,503.15 700.45,502.61 700.36,501.88C698.68,487.32 693.92,478.37 686.22,475.27C678.44,472.14 668.81,475.51 662.1,478.89C654.67,482.64 649.07,487.24 649.02,487.28C648.45,487.75 647.61,487.71 647.08,487.19C646.56,486.67 646.51,485.83 646.99,485.25C656.74,473.45 660.15,463.64 657.13,456.11C652.24,443.9 631.91,441.33 631.71,441.31C631.03,441.23 630.5,440.68 630.45,440C630.39,439.32 630.82,438.69 631.47,438.5C648.12,433.51 658.38,425.54 661.97,414.82C667.83,397.3 653.84,377.95 653.7,377.76C653.24,377.14 653.36,376.26 653.97,375.78C654.58,375.3 655.46,375.38 655.96,375.97C665.79,387.49 676.45,392.83 687.65,391.84C701.16,390.64 713.25,380.4 721.02,372.01C729.53,362.82 734.86,353.78 734.91,353.69C735.31,353.01 736.18,352.78 736.87,353.17C737.56,353.56 737.8,354.43 737.41,355.12C737.35,355.22 731.78,365.27 727.39,376.4C721.84,390.49 720.59,400.26 723.89,403.92C725.82,406.07 732.79,409.04 757.68,404.81C772.15,402.35 785.69,398.61 785.82,398.58C786.55,398.38 787.31,398.77 787.56,399.49C787.81,400.2 787.47,400.99 786.77,401.29C786.62,401.36 771.38,407.96 756.55,416.06C747.88,420.8 741.05,425.1 736.25,428.86C733.07,431.35 727.8,436 728.19,439.19C728.86,444.56 738.1,449.16 754.22,452.15C767,454.52 779.74,455.08 779.87,455.08C780.65,455.11 781.26,455.75 781.25,456.53C781.25,457.31 780.62,457.94 779.85,457.96C762.49,458.42 747.68,460.89 735.84,465.3C726.34,468.84 718.71,473.63 713.15,479.54C707.82,485.22 705.41,490.92 704.32,494.7C703.14,498.81 703.23,501.62 703.23,501.65C703.26,502.42 702.67,503.08 701.9,503.14L701.79,503.14L701.79,503.15ZM679.28,471.11C682.17,471.11 684.84,471.6 687.29,472.59C694.36,475.43 699.22,482.32 701.78,493.12C703.15,488.74 705.81,483.19 710.98,477.66C716.83,471.4 724.83,466.35 734.76,462.64C742.68,459.68 751.86,457.57 762.2,456.33C759.47,455.96 756.6,455.52 753.73,454.99C735.75,451.66 726.2,446.47 725.34,439.55C724.9,436 727.89,431.76 734.48,426.59C739.4,422.73 746.37,418.34 755.18,413.53C761.05,410.33 766.97,407.36 772.02,404.92C767.82,405.85 763.04,406.82 758.16,407.65C737.85,411.1 725.93,410.51 721.73,405.85C717.54,401.2 718.54,390.93 724.7,375.32C725.52,373.25 726.37,371.22 727.23,369.27C725.97,370.78 724.61,372.34 723.16,373.91C718.02,379.46 712.76,384 707.53,387.38C700.91,391.66 694.31,394.12 687.9,394.69C678.61,395.52 669.72,392.41 661.39,385.45C661.85,386.44 662.31,387.5 662.75,388.61C666.66,398.46 667.34,407.82 664.71,415.7C661.21,426.17 652.08,434.16 637.54,439.5C639.36,439.95 641.49,440.58 643.73,441.43C651.95,444.56 657.52,449.26 659.82,455.02C662.58,461.92 660.82,470.24 654.6,479.81C656.42,478.67 658.5,477.46 660.77,476.32C667.66,472.84 673.86,471.09 679.3,471.09L679.28,471.11Z" style="fill-rule:nonzero;"/>
        </g>
    </g>
</svg>
