<?xml version="1.0" encoding="UTF-8" standalone="no"?>
<!DOCTYPE svg PUBLIC "-//W3C//DTD SVG 1.1//EN" "http://www.w3.org/Graphics/SVG/1.1/DTD/svg11.dtd">
<svg width="100%" height="100%" viewBox="0 0 239 220" version="1.1" xmlns="http://www.w3.org/2000/svg" xmlns:xlink="http://www.w3.org/1999/xlink" xml:space="preserve" xmlns:serif="http://www.serif.com/" style="fill-rule:evenodd;clip-rule:evenodd;stroke-linejoin:round;stroke-miterlimit:2;">
    <g transform="matrix(1,0,0,1,-186.771821,-366.32503)">
        <g id="Shape1">
            <path d="M323.53,439.73C259.21,389.14 199.21,358.12 189.52,370.44C183.47,378.13 198.47,400.91 226.26,429.26C216.23,425.85 208.96,425.66 205.8,429.37C197.9,438.65 218.17,469.38 252.73,502.66C231.15,492.33 214.51,488.61 210.71,494.38C205.03,503.01 230.14,529.58 266.81,553.71C303.48,577.85 337.8,590.42 343.49,581.79C345.49,578.76 343.67,573.5 338.89,566.92C357.09,576.2 370.65,579.21 375.31,573.74C380.54,567.6 373.43,552.05 357.99,532.59C391.41,552.35 416.48,561.22 422.45,553.63C432.14,541.31 387.85,490.32 323.52,439.73L323.53,439.73Z" style="fill:rgb(154,233,149);fill-rule:nonzero;"/>
            <path d="M336.17,585.95C330.32,585.95 322.77,583.77 316.29,581.4C301.71,576.06 283.86,566.66 266.04,554.92C248.22,543.19 232.53,530.51 221.86,519.23C214.01,510.92 205.49,499.73 209.53,493.6C214.42,486.18 233.16,492.51 245.94,497.99C231.58,483.59 219.72,469.51 212.15,457.8C207.81,451.09 204.93,445.25 203.57,440.45C202.07,435.14 202.46,431.1 204.72,428.44C207.64,425.01 213.25,424.31 221.43,426.33C209.31,413.65 199.88,402.15 194,392.89C186.91,381.71 185.02,373.86 188.4,369.56C195.01,361.15 218.32,370.72 236.71,380.23C262.1,393.36 293.25,414.09 324.43,438.61C355.61,463.13 383.1,488.52 401.84,510.1C415.41,525.73 430.21,546.12 423.59,554.53C420.25,558.77 412.34,558.84 400.06,554.74C390.27,551.47 377.74,545.54 363.54,537.48C372.7,549.93 382.9,567.07 376.42,574.69C370.74,581.35 355.95,576.64 342.97,570.53C345.95,575.77 346.54,579.81 344.71,582.6C343.11,585.03 340.01,585.96 336.17,585.96L336.17,585.95ZM218.02,493.1C214.93,493.1 212.83,493.8 211.92,495.18C210.57,497.22 211.88,500.69 213.21,503.24C215.27,507.18 218.88,511.9 223.94,517.25C234.46,528.38 249.97,540.9 267.62,552.52C285.26,564.13 302.9,573.43 317.28,578.7C324.2,581.23 329.95,582.68 334.39,583.02C337.26,583.23 340.96,583.06 342.3,581.02C343.85,578.67 342.23,573.97 337.74,567.78C337.35,567.24 337.38,566.5 337.81,566C338.24,565.49 338.97,565.35 339.56,565.65C348.68,570.3 356.39,573.27 362.47,574.46C366.52,575.26 371.84,575.62 374.23,572.82C376.37,570.3 375.98,565.44 373.09,558.74C370.13,551.86 364.52,543.13 356.87,533.49C356.44,532.95 356.46,532.17 356.91,531.65C357.37,531.13 358.13,531 358.73,531.36C375.35,541.19 389.96,548.33 400.98,552.01C411.67,555.58 418.9,555.84 421.33,552.75C425.42,547.55 417.32,532.31 399.67,511.99C381.04,490.54 353.69,465.29 322.65,440.88C291.61,416.47 260.62,395.84 235.39,382.79C211.47,370.43 194.76,366.15 190.67,371.35C188.2,374.49 190.25,381.6 196.44,391.35C202.81,401.4 213.49,414.17 227.31,428.27C227.78,428.75 227.86,429.48 227.5,430.04C227.14,430.6 226.45,430.85 225.82,430.64C216.23,427.38 209.52,427.27 206.92,430.32C203.63,434.18 206.42,443.63 214.57,456.25C223.02,469.32 236.93,485.45 253.75,501.64C254.26,502.13 254.34,502.92 253.93,503.5C253.53,504.08 252.76,504.28 252.13,503.98C241.46,498.87 232,495.39 224.79,493.91C222.2,493.38 219.93,493.12 218.03,493.12L218.02,493.1Z" style="fill-rule:nonzero;"/>
        </g>
    </g>
</svg>
