<?xml version="1.0" encoding="UTF-8" standalone="no"?>
<!DOCTYPE svg PUBLIC "-//W3C//DTD SVG 1.1//EN" "http://www.w3.org/Graphics/SVG/1.1/DTD/svg11.dtd">
<svg width="100%" height="100%" viewBox="0 0 121 83" version="1.1" xmlns="http://www.w3.org/2000/svg" xmlns:xlink="http://www.w3.org/1999/xlink" xml:space="preserve" xmlns:serif="http://www.serif.com/" style="fill-rule:evenodd;clip-rule:evenodd;stroke-linejoin:round;stroke-miterlimit:2;">
    <g transform="matrix(1,0,0,1,-571.835436,-136.990246)">
        <g id="Shape">
            <path d="M667.26,154.97C648.66,140.87 628.03,134.56 621.18,140.86C617.85,143.92 618.39,149.4 621.96,155.84C600.97,143.1 581.77,137.62 575.4,143.48C567.46,150.79 582.45,172.95 608.88,192.98C635.31,213.01 663.17,223.32 671.11,216.01C675.98,211.53 672.22,201.45 662.49,189.72C674.06,194.8 684.14,195.95 688.54,191.9C695.39,185.59 685.86,169.06 667.26,154.96L667.26,154.97Z" style="fill:rgb(209,185,253);fill-rule:nonzero;"/>
            <path d="M663.33,219.8C657.55,219.8 650.88,217.76 646.43,216.12C634.55,211.72 620.9,203.92 608.01,194.15C586.9,178.15 572.36,160.18 571.85,149.44C571.71,146.5 572.58,144.14 574.43,142.44C577.9,139.24 584.52,138.85 593.58,141.31C601.01,143.33 609.63,147.09 618.72,152.27C616.74,146.9 617.23,142.57 620.22,139.81C623.92,136.4 631.04,136.07 640.25,138.89C649.11,141.6 659.02,146.91 668.14,153.82C682.34,164.58 691.78,177.13 692.2,185.8C692.34,188.75 691.42,191.22 689.53,192.96C687.07,195.23 683.22,196.14 678.09,195.66C674.77,195.35 670.97,194.45 666.91,193.01C674.97,204.02 676.89,212.65 672.1,217.07C669.95,219.05 666.81,219.78 663.34,219.78L663.33,219.8ZM583.2,142.58C580.13,142.58 577.79,143.24 576.37,144.55C575.16,145.66 574.62,147.22 574.72,149.3C575.19,159.08 589.59,176.58 609.74,191.85C637.79,213.11 663.61,220.97 670.13,214.97C674.12,211.3 670.77,201.98 661.38,190.65C660.95,190.14 660.94,189.4 661.34,188.86C661.74,188.33 662.46,188.14 663.07,188.41C674.41,193.38 683.8,194.32 687.57,190.85C688.83,189.69 689.41,188.04 689.31,185.94C688.94,178.21 679.73,166.22 666.39,156.11C657.53,149.39 647.94,144.25 639.39,141.64C631.32,139.17 625.03,139.27 622.16,141.92C620.61,143.35 618.69,146.96 623.22,155.15C623.54,155.72 623.43,156.43 622.96,156.89C622.49,157.34 621.77,157.42 621.22,157.08C611.05,150.91 600.96,146.29 592.83,144.08C589.14,143.08 585.89,142.58 583.22,142.58L583.2,142.58Z" style="fill-rule:nonzero;"/>
        </g>
    </g>
</svg>
