<?xml version="1.0" encoding="UTF-8" standalone="no"?>
<!DOCTYPE svg PUBLIC "-//W3C//DTD SVG 1.1//EN" "http://www.w3.org/Graphics/SVG/1.1/DTD/svg11.dtd">
<svg width="100%" height="100%" viewBox="0 0 671 476" version="1.1" xmlns="http://www.w3.org/2000/svg" xmlns:xlink="http://www.w3.org/1999/xlink" xml:space="preserve" xmlns:serif="http://www.serif.com/" style="fill-rule:evenodd;clip-rule:evenodd;stroke-linejoin:round;stroke-miterlimit:2;">
    <g transform="matrix(1,0,0,1,-144.304403,-103.862422)">
        <g id="Stars">
            <path d="M784.39,320.82L794.33,311.65L805.39,313.46C806.18,313.59 806.68,312.64 806.13,312.06L798.21,303.78L806,295.79C806.6,295.18 805.99,294.16 805.17,294.41L793.5,297.91L784.78,288.88C784.24,288.32 783.31,288.74 783.35,289.51L783.97,300.22L771.11,303.79C770.25,304.03 770.32,305.27 771.2,305.41L784.67,307.64L783,320.1C782.9,320.87 783.82,321.35 784.39,320.82Z" style="fill:rgb(255,93,93);fill-rule:nonzero;"/>
            <path d="M161.76,465.47L169.18,476.78L180.35,477.7C181.15,477.77 181.4,478.81 180.73,479.23L171.04,485.35L176.66,494.99C177.09,495.73 176.25,496.56 175.52,496.13L165.04,489.91L154.39,496.56C153.74,496.97 152.92,496.34 153.15,495.61L156.34,485.37L144.73,478.79C143.95,478.35 144.32,477.16 145.21,477.24L158.82,478.34L160.22,465.85C160.31,465.08 161.32,464.83 161.74,465.49L161.76,465.47Z" style="fill:rgb(255,93,93);fill-rule:nonzero;"/>
            <g>
                <path d="M316.2,170.76L331.77,147.04L355.21,145.1C356.88,144.96 357.42,142.78 356,141.88L335.68,129.05L347.47,108.84C348.38,107.28 346.62,105.54 345.07,106.46L323.1,119.51L300.77,105.57C299.4,104.71 297.7,106.02 298.18,107.57L304.88,129.05L280.54,142.85C278.91,143.77 279.68,146.26 281.54,146.11L310.09,143.8L313.02,169.99C313.2,171.61 315.32,172.12 316.21,170.75L316.2,170.76Z" style="fill:rgb(255,160,54);fill-rule:nonzero;"/>
                <path d="M314.76,172.99C314.51,172.99 314.26,172.96 314,172.9C312.68,172.58 311.73,171.51 311.57,170.16L308.79,145.35L281.63,147.55C280.11,147.67 278.78,146.77 278.33,145.31C277.88,143.85 278.47,142.36 279.8,141.6L303.13,128.37L296.78,108C296.38,106.71 296.81,105.35 297.87,104.53C298.94,103.71 300.36,103.64 301.5,104.35L323.09,117.82L344.31,105.22C345.58,104.47 347.13,104.66 348.18,105.7C349.23,106.74 349.43,108.29 348.69,109.57L337.6,128.58L356.74,140.67C357.92,141.41 358.46,142.77 358.13,144.12C357.8,145.47 356.69,146.42 355.3,146.54L332.56,148.42L317.38,171.55C316.78,172.47 315.79,172.99 314.73,172.99L314.76,172.99ZM310.07,142.36C310.8,142.36 311.42,142.91 311.5,143.64L314.43,169.83C314.43,169.88 314.45,170.04 314.66,170.09C314.87,170.14 314.96,170 314.99,169.96L330.56,146.24C330.8,145.87 331.2,145.63 331.65,145.59L355.09,143.65C355.14,143.65 355.31,143.63 355.36,143.42C355.41,143.21 355.27,143.12 355.23,143.09L334.91,130.26C334.25,129.85 334.04,128.99 334.44,128.32L346.23,108.11C346.26,108.05 346.35,107.91 346.18,107.74C346.01,107.57 345.86,107.66 345.81,107.69L323.84,120.74C323.38,121.02 322.8,121.01 322.34,120.72L300.01,106.78C300.01,106.78 299.83,106.67 299.66,106.8C299.49,106.93 299.54,107.08 299.55,107.13L306.25,128.61C306.45,129.26 306.18,129.96 305.59,130.29L281.25,144.09C281.19,144.13 281.04,144.21 281.11,144.45C281.18,144.68 281.35,144.67 281.43,144.67L309.98,142.36L310.1,142.36L310.07,142.36Z" style="fill-rule:nonzero;"/>
            </g>
            <g>
                <path d="M755.18,569.23L779.34,564.4L794.82,577.71C795.92,578.66 797.6,577.66 797.29,576.24L792.85,555.85L812.53,550.83C814.05,550.44 814.05,548.29 812.54,547.89L791.08,542.25L786.09,519.94C785.78,518.57 783.94,518.32 783.27,519.56L774.06,536.79L750.69,530.14C749.13,529.7 748.06,531.69 749.28,532.75L768.11,549L753.69,566.78C752.8,567.88 753.77,569.5 755.16,569.22L755.18,569.23Z" style="fill:rgb(255,160,54);fill-rule:nonzero;"/>
                <path d="M795.8,579.53C795.12,579.53 794.44,579.29 793.88,578.81L778.93,565.95L755.46,570.64C754.22,570.89 753,570.35 752.35,569.27C751.7,568.19 751.79,566.86 752.58,565.88L766.12,549.19L748.35,533.85C747.28,532.92 747.01,531.46 747.68,530.21C748.35,528.96 749.72,528.38 751.09,528.77L773.35,535.1L782.01,518.89C782.6,517.79 783.78,517.19 785.02,517.35C786.26,517.52 787.23,518.42 787.51,519.63L792.3,541.08L812.91,546.5C814.23,546.85 815.12,548 815.11,549.37C815.11,550.74 814.21,551.89 812.89,552.22L794.55,556.9L798.7,575.93C798.98,577.19 798.44,578.44 797.33,579.1C796.85,579.39 796.33,579.53 795.81,579.53L795.8,579.53ZM779.33,562.96C779.67,562.96 780.01,563.08 780.27,563.31L795.75,576.62C795.75,576.62 795.79,576.66 795.84,576.62C795.89,576.59 795.88,576.58 795.88,576.54L791.44,556.15C791.27,555.39 791.74,554.64 792.49,554.45L812.17,549.43L812.22,549.41C812.24,549.39 812.24,549.32 812.22,549.3C812.2,549.28 812.21,549.3 812.18,549.28L790.72,543.64C790.2,543.5 789.8,543.09 789.68,542.56L784.69,520.25C784.69,520.25 784.68,520.2 784.63,520.19C784.58,520.19 784.57,520.19 784.55,520.23L775.34,537.46C775.02,538.06 774.33,538.35 773.68,538.17L750.31,531.52L750.26,531.52C750.24,531.53 750.2,531.6 750.21,531.62C750.22,531.64 750.22,531.63 750.24,531.65L769.07,547.9C769.66,548.41 769.74,549.29 769.25,549.9L754.83,567.68C754.83,567.68 754.8,567.72 754.83,567.77C754.86,567.82 754.87,567.81 754.91,567.81L779.07,562.98C779.16,562.96 779.26,562.95 779.35,562.95L779.33,562.96Z" style="fill-rule:nonzero;"/>
            </g>
        </g>
    </g>
</svg>
